      <svg
        fill="none"
        xmlns="http://www.w3.org/2000/svg"
        viewBox="0 0 1904 684"
      >
        <g opacity=".97" filter="url(#:Rqd56:_b)">
          <path
            fill-rule="evenodd"
            clip-rule="evenodd"
            d="M192.027 266.064c-18.112 3.021-37.885 3.279-58.26.259-73.878-10.951-127.684-60.864-120.18-111.484C21.09 104.22 87.063 72.062 160.94 83.013c20.377 3.021 39.227 9.006 55.685 17.152 18.112-3.02 37.886-3.279 58.261-.259 73.877 10.952 127.684 60.864 120.18 111.484-7.504 50.619-73.476 82.777-147.353 71.826-20.378-3.021-39.228-9.006-55.686-17.152Z"
            fill="#FF98A2"
          ></path>
          <path
            d="M257.618 190.62c-6.034 39.876-61.288 64.853-123.378 55.836-62.09-9.017-107.572-48.625-101.538-88.5 6.033-39.875 61.288-64.852 123.378-55.835"
            fill="#FF98A2"
          ></path>
          <path
            d="M257.618 190.62c-6.034 39.876-61.288 64.853-123.378 55.836-62.09-9.017-107.572-48.625-101.538-88.5 6.033-39.875 61.288-64.852 123.378-55.835"
            stroke="#121212"
            stroke-width="3"
            stroke-miterlimit="10"
            stroke-linecap="round"
            stroke-linejoin="round"
          ></path>
          <path
            d="M184.737 180.042c-6.011 39.748-28.579 69.366-50.41 66.193-21.832-3.172-34.664-37.934-28.653-77.682 6.01-39.749 28.578-69.366 50.409-66.194"
            fill="#FF98A2"
          ></path>
          <path
            d="M184.737 180.042c-6.011 39.748-28.579 69.366-50.41 66.193-21.832-3.172-34.664-37.934-28.653-77.682 6.01-39.749 28.578-69.366 50.409-66.194"
            stroke="#121212"
            stroke-width="3"
            stroke-miterlimit="10"
            stroke-linecap="round"
            stroke-linejoin="round"
          ></path>
          <path
            d="M224.831 185.851c-6.031 39.824-46.558 66.902-90.589 60.512-43.98-6.383-74.791-43.815-68.761-83.639 6.03-39.825 46.558-66.902 90.588-60.512"
            fill="#FF98A2"
          ></path>
          <path
            d="M224.831 185.851c-6.031 39.824-46.558 66.902-90.589 60.512-43.98-6.383-74.791-43.815-68.761-83.639 6.03-39.825 46.558-66.902 90.588-60.512M32.469 157.586l225.421 33.416M155.852 102.508l-21.283 143.574"
            stroke="#121212"
            stroke-width="3"
            stroke-miterlimit="10"
            stroke-linecap="round"
            stroke-linejoin="round"
          ></path>
          <path
            d="M151.994 175.699c6.058-39.906 61.313-64.934 123.378-55.949 62.065 8.986 107.508 48.593 101.449 88.5-6.058 39.907-61.312 64.935-123.378 55.949"
            fill="#FF98A2"
          ></path>
          <path
            d="M151.994 175.699c6.058-39.906 61.313-64.934 123.378-55.949 62.065 8.986 107.508 48.593 101.449 88.5-6.058 39.907-61.312 64.935-123.378 55.949"
            stroke="#121212"
            stroke-width="3"
            stroke-miterlimit="10"
            stroke-linecap="round"
            stroke-linejoin="round"
          ></path>
          <path
            d="M224.915 186.248c6.031-39.761 28.598-69.398 50.409-66.238 21.812 3.16 34.611 37.922 28.58 77.683-6.031 39.761-28.598 69.399-50.41 66.238"
            fill="#FF98A2"
          ></path>
          <path
            d="M224.915 186.248c6.031-39.761 28.598-69.398 50.409-66.238 21.812 3.16 34.611 37.922 28.58 77.683-6.031 39.761-28.598 69.399-50.41 66.238"
            stroke="#121212"
            stroke-width="3"
            stroke-miterlimit="10"
            stroke-linecap="round"
            stroke-linejoin="round"
          ></path>
          <path
            d="M184.779 180.449c6.054-39.848 46.582-66.965 90.589-60.598 44.006 6.367 74.728 43.791 68.673 83.639-6.054 39.848-46.581 66.965-90.588 60.598"
            fill="#FF98A2"
          ></path>
          <path
            d="M184.779 180.449c6.054-39.848 46.582-66.965 90.589-60.598 44.006 6.367 74.728 43.791 68.673 83.639-6.054 39.848-46.581 66.965-90.588 60.598M377.146 208.684l-225.472-33.423M253.765 263.759l21.283-143.576"
            stroke="#121212"
            stroke-width="3"
            stroke-miterlimit="10"
            stroke-linecap="round"
            stroke-linejoin="round"
          ></path>
          <path
            d="M253.46 263.751c-62.098-9.02-114.037-49.574-108.003-89.458l118.923 17.275-10.92 72.183c-44.026-6.395-74.873-43.885-68.84-83.769Z"
            fill="#FF98A2"
          ></path>
          <path
            d="M253.46 263.751c-62.098-9.02-114.037-49.574-108.003-89.458l118.923 17.275-10.92 72.183Zm0 0c-44.026-6.395-74.873-43.885-68.84-83.769"
            stroke="#121212"
            stroke-width="3"
            stroke-miterlimit="10"
            stroke-linecap="round"
            stroke-linejoin="round"
          ></path>
          <path
            d="M253.506 263.748c-21.831-3.171-34.662-37.933-28.65-77.682Z"
            fill="#FF98A2"
          ></path>
          <path
            d="M253.506 263.748c-21.831-3.171-34.662-37.933-28.65-77.682"
            stroke="#121212"
            stroke-width="3"
            stroke-miterlimit="10"
            stroke-linecap="round"
            stroke-linejoin="round"
          ></path>
          <path
            d="M156.062 102.513c62.131 9.065 114.128 49.621 108.129 89.458l-118.986-17.36 10.857-72.098c44.05 6.427 74.944 43.904 68.945 83.741Z"
            fill="#FF98A2"
          ></path>
          <path
            d="M156.062 102.513c62.131 9.065 114.128 49.621 108.129 89.458l-118.986-17.36 10.857-72.098Zm0 0c44.05 6.427 74.944 43.904 68.945 83.741"
            stroke="#121212"
            stroke-width="3"
            stroke-miterlimit="10"
            stroke-linecap="round"
            stroke-linejoin="round"
          ></path>
          <path
            d="M156.035 102.513c21.86 3.19 34.739 37.952 28.757 77.683Z"
            fill="#FF98A2"
          ></path>
          <path
            d="M156.035 102.513c21.86 3.19 34.739 37.952 28.757 77.683M52.886 123.907l314.502 46.621M42.235 195.746l314.502 46.621"
            stroke="#121212"
            stroke-width="3"
            stroke-miterlimit="10"
            stroke-linecap="round"
            stroke-linejoin="round"
          ></path>
        </g>
        <defs>
          <filter
            id=":Rqd56:_b"
            x="8.888"
            y="80.874"
            width="390.876"
            height="212.482"
            filterUnits="userSpaceOnUse"
            color-interpolation-filters="sRGB"
          >
            <feFlood flood-opacity="0" result="BackgroundImageFix"></feFlood>
            <feColorMatrix
              in="SourceAlpha"
              values="0 0 0 0 0 0 0 0 0 0 0 0 0 0 0 0 0 0 127 0"
              result="hardAlpha"
            ></feColorMatrix>
            <feOffset dy="4"></feOffset>
            <feComposite in2="hardAlpha" operator="out"></feComposite>
            <feColorMatrix values="0 0 0 0 0 0 0 0 0 0 0 0 0 0 0 0 0 0 0.2 0"></feColorMatrix>
            <feBlend
              in2="BackgroundImageFix"
              result="effect1_dropShadow_506_106"
            ></feBlend>
            <feBlend
              in="SourceGraphic"
              in2="effect1_dropShadow_506_106"
              result="shape"
            ></feBlend>
          </filter>
        </defs>
      </svg>