      <svg viewBox="0 0 90 48" fill="none" xmlns="http://www.w3.org/2000/svg">
        <path
          d="M45 42.7769c21.7462 0 39.375-8.3117 39.375-18.5647 0-10.253-17.6288-18.56474-39.375-18.56474S5.625 13.9592 5.625 24.2122 23.2538 42.7769 45 42.7769Z"
          stroke="#FFDDD5"
          stroke-miterlimit="10"
          stroke-linecap="round"
        ></path>
        <path
          d="M44.9992 42.7769c7.6733 0 13.8938-8.3117 13.8938-18.5647 0-10.253-6.2205-18.56474-13.8938-18.56474S31.1055 13.9592 31.1055 24.2122s6.2204 18.5647 13.8937 18.5647Z"
          stroke="#FFDDD5"
          stroke-miterlimit="10"
          stroke-linecap="round"
        ></path>
        <path
          d="M44.9984 42.7769c15.4243 0 27.9282-8.3117 27.9282-18.5647 0-10.253-12.5039-18.56474-27.9282-18.56474S17.0703 13.9592 17.0703 24.2122s12.5038 18.5647 27.9281 18.5647Z"
          stroke="#FFDDD5"
          stroke-miterlimit="10"
          stroke-linecap="round"
        ></path>
        <path
          d="M68.8785 9.44531c-4.3734 3.09219-13.4297 5.21019-23.864 5.21019-10.4485 0-19.4907-2.118-23.8641-5.21019M21.1387 38.9807c4.3734-3.0922 13.4297-5.2102 23.864-5.2102 10.4485 0 19.4907 2.118 23.8641 5.2102M5.625 24.2119h78.7641M45 5.64746V42.7769"
          stroke="#FFDDD5"
          stroke-miterlimit="10"
          stroke-linecap="round"
        ></path>
        <path
          d="M47.3558 21.8756c1.1855 1.2003 2.7942 1.9414 4.9052 2.3747-2.1136.4136-3.7277 1.1402-4.9233 2.3302-1.1933 1.1878-1.9308 2.7988-2.3627 4.9124-.4121-2.1162-1.1352-3.7327-2.3183-4.9306-1.1855-1.2003-2.7942-1.9413-4.9051-2.3747 2.1135-.4136 3.7277-1.1401 4.9232-2.3301 1.1933-1.1878 1.9308-2.7989 2.3627-4.9124.4121 2.1161 1.1352 3.7326 2.3183 4.9305Z"
          fill="#FFDDD5"
          stroke="#FFDDD5"
        ></path>
      </svg>