        <svg xmlns="http://www.w3.org/2000/svg" fill="none" viewBox="0 0 24 24">
          <path
            fill="#FFDDD5"
            d="M20.6 8h-.2v.4h.4V8zm.6 1.6v.4h.1v-.4Zm.2 1.1h-.2v.4h.2zm-.2 1.1v.4h.2v-.4zm0 1.4h.1v-.4.4Zm-2.1-8L19 5l-.2-.2v.4zm.5 1.2v.4h.4v-.4zm.4 1h-.4V8h.4zm.4 1.6v.5h.4V9zm-.4-.5h-.4V9h.4zm.4 1.6v.5h.4V10zm-.4-.5h-.4v.4h.4zm.4 1.6v.4h.4v-.4zm-.4-.5h-.4v.4h.4zm.4 1.6v.4h.4v-.4zm-.4-.5h-.4v.4h.4zm.4 1.6v.4h.4v-.4zm-.4-.6h-.4v.4h.4zm.4 1.6v.5h.4v-.5zM20 14h-.4v.3h.4zm.4 1.5v.4h.1l.2-.4zM20 15h-.4v.4h.4zm0 1h-.4v.5h.4zm-.4 1.5.2-.4h-.2zM18 4.2v.4h.4v-.2l-.2-.2zm.8 1.6v.4h.4v-.4zm-.4-.5H18v.4h.4zm.4 1.7v.2h.4V7zm-.4-.6H18v.4h.4zm.4 1.6v.4h.4V8zm-.4-.6H18V8h.4zm.4 1.6v.5h.4V9zm-.4-.5H18V9h.4zm.4 1.6v.5h.4V10zm-.4-.5H18v.4h.4zm.4 1.6v.4h.4v-.4zm-.4-.5H18v.4h.4zm.4 1.6v.4h.4v-.4zm-.4-.5H18v.4h.4zm.4 1.6v.4h.4v-.4zm-.4-.6H18v.4h.4zm.4 1.6v.5h.4v-.5zm-.4-.4H18v.3h.4zm.4 1.5v.4h.4v-.4zm-.4-.5H18v.4h.4zm.4 1.6v.4h.4v-.4zm-.4-.6H18v.5h.4zm.4 1.7v.4h.4v-.4zm-.4-.6H18v.4h.4zm0 1.1H18v.4h.4zM15.8 2.6h-.2V3h.4v-.4zm1.4 1.1V4h.4v-.4h-.4Zm-.4-.6h-.4v.4h.4zm.4 1.7v.4h.4v-.4zm-.4-.6h-.4v.4h.4zm.4 1.6v.4h.4v-.4zm-.4-.5h-.4v.4h.4zm.4 1.7v.2h.4V7zm-.4-.6h-.4v.4h.4zm.4 1.6v.4h.4V8zm-.4-.6h-.4V8h.4zm.4 1.6v.5h.4V9zm-.4-.5h-.4V9h.4zm.4 1.6v.5h.4V10zm-.4-.5h-.4v.4h.4zm.4 1.6v.4h.4v-.4zm-.4-.5h-.4v.4h.4zm.4 1.6v.4h.4v-.4zm-.4-.5h-.4v.4h.4zm.4 1.6v.4h.4v-.4zm-.4-.6h-.4v.4h.4zm.4 1.6v.5h.4v-.5zm-.4-.4h-.4v.3h.4zm.4 1.5v.4h.4v-.4zm-.4-.5h-.4v.4h.4zm.4 1.6v.4h.4v-.4zm-.4-.6h-.4v.5h.4zm.4 1.7v.4h.4v-.4zm-.4-.6h-.4v.4h.4zm.4 1.7v.4h.4v-.4zm-.4-.6h-.4v.4h.4zm.4 1.8.1-.2h-.1v.1Zm-.4-.7h-.4v.4h.4zm-.4 1.2.1-.1h-.1Zm-1.6-18h.4v-.3l-.4-.1zm-.5-.5-.2-.1H14h.4Zm1.3 1.7V4h.4v-.4h-.4Zm-.4-.6h-.4v.4h.4zm.4 1.7v.4h.4v-.4zm-.4-.6h-.4v.4h.4zm.4 1.6v.4h.4v-.4zm-.4-.5h-.4v.4h.4zm.4 1.7v.2h.4V7zm-.4-.6h-.4v.4h.4zm.4 1.6v.4h.4V8zm-.4-.6h-.4V8h.4zm.4 1.6v.5h.4V9zm-.4-.5h-.4V9h.4zm.4 1.6v.5h.4V10zm-.4-.5h-.4v.4h.4zm.4 1.6v.4h.4v-.4zm-.4-.5h-.4v.4h.4zm.4 1.6v.4h.4v-.4zm-.4-.5h-.4v.4h.4zm.4 1.6v.4h.4v-.4zm-.4-.6h-.4v.4h.4zm.4 1.6v.5h.4v-.5zm-.4-.4h-.4v.3h.4zm.4 1.5v.4h.4v-.4zm-.4-.5h-.4v.4h.4zm.4 1.6v.4h.4v-.4zm-.4-.6h-.4v.5h.4zm.4 1.7v.4h.4v-.4zm-.4-.6h-.4v.4h.4zm.4 1.7v.4h.4v-.4zm-.4-.6h-.4v.4h.4zm.4 1.6v.4h.4v-.4zm-.4-.5h-.4v.4h.4zm0 1.1h-.4v.4h.4zM14 2.6V3h.4v-.4zm-.5-.6h-.4v.5h.4zm.5 1.7V4h.4v-.4h-.5Zm-.5-.6h-.4v.4h.4zm.5 1.7v.4h.4v-.4zm-.5-.6h-.4v.4h.4zm.5 1.6v.4h.4v-.4zm-.5-.5h-.4v.4h.4zM14 7v.2h.4V7zm-.5-.6h-.4v.4h.4zM14 8v.4h.4V8zm-.5-.6h-.4V8h.4zM14 9v.5h.4V9zm-.5-.5h-.4V9h.4zm.5 1.6v.5h.4V10zm-.5-.5h-.4v.4h.4zm.5 1.6v.4h.4v-.4zm-.5-.5h-.4v.4h.4zm.5 1.6v.4h.4v-.4zm-.5-.5h-.4v.4h.4zm.5 1.6v.4h.4v-.4zm-.5-.6h-.4v.4h.4zm.5 1.6v.5h.4v-.5zm-.5-.4h-.4v.3h.4zm.5 1.5v.4h.4v-.4zm-.5-.5h-.4v.4h.4zm.5 1.6v.4h.4v-.4zm-.5-.6h-.4v.5h.4zm.5 1.7v.4h.4v-.4zm-.5-.6h-.4v.4h.4zm.5 1.7v.4h.4v-.4zm-.5-.6h-.4v.4h.4zm.5 1.6v.4h.4v-.4zm-.5-.5h-.4v.4h.4zM14 21v.2h.4V21zm-.5-.6h-.4v.4h.4zm-.4 1.3.4-.1v-.1h-.4zm-.8-20.2V2h.4v-.3h-.4Zm0 1.1V3h.4v-.4zM12 2h-.5v.5h.4zm.3 1.7V4h.4v-.4h-.4Zm-.3-.6h-.5v.4h.4zm.3 1.7v.4h.4v-.4zm-.3-.6h-.5v.4h.4zm.3 1.6v.4h.4v-.4zm-.3-.5h-.5v.4h.4zm.3 1.7v.2h.4V7zm-.3-.6h-.5v.4h.4zm.3 1.6v.4h.4V8zm-.3-.6h-.5V8h.4zm.3 1.6v.5h.4V9zm-.3-.5h-.5V9h.4zm.3 1.6v.5h.4V10zm-.3-.5h-.5v.4h.4zm.3 1.6v.4h.4v-.4zm-.3-.5h-.5v.4h.4zm.3 1.6v.4h.4v-.4zm-.3-.5h-.5v.4h.4zm.3 1.6v.4h.4v-.4zm-.3-.6h-.5v.4h.4zm.3 1.6v.5h.4v-.5zM12 14h-.5v.3h.4zm.3 1.5v.4h.4v-.4zM12 15h-.5v.4h.4zm.3 1.6v.4h.4v-.4zM12 16h-.5v.5h.4zm.3 1.7v.4h.4v-.4zm-.3-.6h-.5v.4h.4zm.3 1.7v.4h.4v-.4zm-.3-.6h-.5v.4h.4zm.3 1.6v.4h.4v-.4zm-.3-.5h-.5v.4h.4zm.3 1.7v.2h.4V21zm-.3-.6h-.5v.4h.4zm-.5 1.4h.4v-.3h-.4zm-.8-20.3V2h.4v-.4h-.4Zm0 1.1V3h.4v-.4zm-.4-.6H10v.5h.4zm.4 1.7V4h.4v-.4h-.4Zm-.4-.6H10v.4h.4zm.4 1.7v.4h.4v-.4zm-.4-.6H10v.4h.4zm.4 1.6v.4h.4v-.4zm-.4-.5H10v.4h.4zm.4 1.7v.2h.4V7zm-.4-.6H10v.4h.4zm.4 1.6v.4h.4V8zm-.4-.6H10V8h.4zm.4 1.6v.5h.4V9zm-.4-.5H10V9h.4zm.4 1.6v.5h.4V10zm-.4-.5H10v.4h.4zm.4 1.6v.4h.4v-.4zm-.4-.5H10v.4h.4zm.4 1.6v.4h.4v-.4zm-.4-.5H10v.4h.4zm.4 1.6v.4h.4v-.4zm-.4-.6H10v.4h.4zm.4 1.6v.5h.4v-.5zm-.4-.4H10v.3h.4zm.4 1.5v.4h.4v-.4zm-.4-.5H10v.4h.4zm.4 1.6v.4h.4v-.4zm-.4-.6H10v.5h.4zm.4 1.7v.4h.4v-.4zm-.4-.6H10v.4h.4zm.4 1.7v.4h.4v-.4zm-.4-.6H10v.4h.4zm.4 1.6v.4h.4v-.4zm-.4-.5H10v.4h.4zm.4 1.7v.2h.4V21zm-.4-.6H10v.4h.4zm-.4 1.4h.4v-.4H10v.3ZM9.1 1.7v.2h.4v-.3h-.2zm0 .9V3h.4v-.4zM8.7 2h-.4v.5h.4zm.4 1.7V4h.4v-.4h-.4Zm-.4-.6h-.4v.4h.4zm.4 1.7v.4h.4v-.4zm-.4-.6h-.4v.4h.4zm.4 1.6v.4h.4v-.4zm-.4-.5h-.4v.4h.4zM9.1 7v.2h.4V7zm-.4-.6h-.4v.4h.4zM9.1 8v.4h.4V8zm-.4-.6h-.4V8h.4zM9.1 9v.5h.4V9zm-.4-.5h-.4V9h.4zm.4 1.6v.5h.4V10zm-.4-.5h-.4v.4h.4zm.4 1.6v.4h.4v-.4zm-.4-.5h-.4v.4h.4zm.4 1.6v.4h.4v-.4zm-.4-.5h-.4v.4h.4zm.4 1.6v.4h.4v-.4zm-.4-.6h-.4v.4h.4zm.4 1.6v.5h.4v-.5zm-.4-.4h-.4v.3h.4zm.4 1.5v.4h.4v-.4zm-.4-.5h-.4v.4h.4zm.4 1.6v.4h.4v-.4zm-.4-.6h-.4v.5h.4zm.4 1.7v.4h.4v-.4zm-.4-.6h-.4v.4h.4zm.4 1.7v.4h.4v-.4zm-.4-.6h-.4v.4h.4zm.4 1.6v.4h.4v-.4zm-.4-.5h-.4v.4h.4zm.4 1.7v.2h.4V21zm-.4-.6h-.4v.4h.4zm0 1.1h-.2zM7.5 2.6V3h.4v-.4zM7 2.5v-.1Zm.5 1.2V4h.4v-.4h-.4ZM7 3.1h-.3v.4H7zm-1-.2V3h.4v-.2H6Zm1.5 1.9v.4h.4v-.4zM7 4.2h-.3v.4H7zm.5 1.6v.4h.4v-.4zM7 5.3h-.3v.4H7zM7.5 7v.2h.4V7zM7 6.4h-.3v.4H7zM7.5 8v.4h.4V8zM7 7.4h-.3V8H7zM7.5 9v.5h.4V9zM7 8.5h-.3V9H7zm.5 1.6v.5h.4V10zM7 9.6h-.3v.4H7zm.5 1.6v.4h.4v-.4zm-.5-.5h-.3v.4H7zm.5 1.6v.4h.4v-.4zm-.5-.5h-.3v.4H7zm.5 1.6v.4h.4v-.4zm-.5-.6h-.3v.4H7zm.5 1.6v.5h.4v-.5zM7 14h-.3v.3H7zm.5 1.5v.4h.4v-.4zM7 15h-.3v.4H7zm.5 1.6v.4h.4v-.4zM7 16h-.3v.5H7zm.5 1.7v.4h.4v-.4zm-.5-.6h-.3v.4H7zm.5 1.7v.4h.4v-.4zm-.5-.6h-.3v.4H7zm.5 1.6v.4h.4v-.4zm-.5-.5h-.3v.4H7zm.5 1.7.2.1h.2V21zm-.8-.2h.4v-.4h-.4zM5.9 3.7V4h.4v-.4h-.4Zm-.4-.2v-.2l-.4.2zm.4 1.3v.4h.4v-.4zm-.4-.6H5v.4h.4zm.4 1.6v.4h.4v-.4zm-.4-.5H5v.4h.4zM5.9 7v.2h.4V7zm-.4-.6H5v.4h.4zM5.9 8v.4h.4V8zm-.4-.6H5V8h.4zM5.9 9v.5h.4V9zm-.4-.5H5V9h.4zm.4 1.6v.5h.4V10zm-.4-.5H5v.4h.4zm.4 1.6v.4h.4v-.4zm-.4-.5H5v.4h.4zm.4 1.6v.4h.4v-.4zm-.4-.5H5v.4h.4zm.4 1.6v.4h.4v-.4zm-.4-.6H5v.4h.4zm.4 1.6v.5h.4v-.5zm-.4-.4H5v.3h.4zm.4 1.5v.4h.4v-.4zm-.4-.5H5v.4h.4zm.4 1.6v.4h.4v-.4zm-.4-.6H5v.5h.4zm.4 1.7v.4h.4v-.4zm-.4-.6H5v.4h.4zm.4 1.7v.4h.4v-.4zm-.4-.6H5v.4h.4zm.4 1.6v.4h.4v-.4zm-.4-.5H5v.4h.4zM4.2 4.8v.4h.5v-.4zm.2-.8h.3l-.2.2Zm-.2 1.8v.4h.5v-.4zM2.8 6l-.2.2H3v-.4.2Zm1.1-.7h-.5v.4H4v-.4ZM4.2 7v.2h.5V7zm-.3-.6h-.5v.4H4v-.4ZM4.2 8v.4h.5V8zm-.3-.6h-.5V8H4v-.5ZM4.2 9v.5h.5V9zm-.3-.5h-.5V9H4v-.4Zm.3 1.6v.5h.5V10zm-.3-.5h-.5v.4H4v-.4Zm.3 1.6v.4h.5v-.4zm-.3-.5h-.5v.4H4v-.4Zm.3 1.6v.4h.5v-.4zm-.3-.5h-.5v.4H4v-.4Zm.3 1.6v.4h.5v-.4zm-.3-.6h-.5v.4H4v-.4Zm.3 1.6v.5h.5v-.5zm-.3-.4h-.5v.3H4V14Zm.3 1.5v.4h.5v-.4zm-.3-.5h-.5v.4H4V15Zm.3 1.6v.4h.5v-.4zm-.3-.6h-.5v.5H4V16Zm.3 1.7v.4h.5v-.4zm-.3-.6h-.5v.4H4v-.4Zm.3 1.7v.2l.2.2h.3v-.4zm-.4-.2v-.4h-.3q0 .3.3.4M2.6 7v.2H3V7zm0 1v.4H3V8zm-.8-.2h.4v-.4H2zM2.6 9v.5H3V9zm-1.2.3-.1.2h.1V9v.2Zm.8-.8h-.4V9h.4zm.4 1.6v.5H3V10zm-.4-.5h-.4v.4h.4zm.4 1.6v.4H3v-.4zm-.4-.5h-.4v.4h.4zm.4 1.6v.4H3v-.4zm-.4-.5h-.4v.4h.4zm.4 1.6v.4H3v-.4zm-.4-.6h-.4v.4h.4zm.4 1.6v.5H3v-.5zm-.4-.4h-.4v.3h.4zm.4 1.5v.4H3v-.4zm-.4-.5h-.4v.4h.4zm.4 1.6v.4H3v-.4zm-.4-.2V16h-.1zm-1-6.3v.5h.2V10zM1 11.2v.4h.4v-.4zm.1 1.1v.4h.3v-.4zm.1 1.1v.4h.2v-.4z"
          ></path>
          <path
            fill="#FFDDD5"
            d="M10.7 5.2V4l.1-.3V1.1l.1-.5V-.8q.2-.6.1-1.2v-.4l.1-.6v-1h.2v.2l.1.4v2.2s.1.1 0 .2l.1.6V1l.1.6v1.5l.1 1v1.4l.1.7q0 .7.2 1l.5 1.2.5.7.6.7.6.5.7.4.7.3.5.1 1.3.3h3.4l1.7.2H25l.6.1h.6q.2 0 .2.2l-.1.1h-1.1l-.4.1H23q-.3.2-.4 0h-.1l-1 .1-1.5.1h-2s-.1.1-.2 0l-.9.1-.9.2-.5.2-.5.2-.5.3-.7.6-.2.2-.4.3-.5.8-.4.8-.3 1-.1.8V20l-.2 1.2v10.4l-.1.1V35l-.1.7v2l-.2-.8-.1-.2v-3.2l-.1-.3v-7s-.1 0 0-.1v-.8l-.1-.6V21l-.1-1v-2l-.1-.7-.1-.5-.2-.6V16l-.2-.3-.2-.4q0-.2-.3-.5l-.4-.6-.4-.4h-.2q-.2-.4-.6-.6l-.6-.3-.4-.2-.4-.2-.8-.1-.8-.1H3.3l-.1-.1H1L.8 12h-1l-.7-.1h-1.3l-.1-.2v-.1l.2-.1H0l.6-.1h1.3l.6-.1h.6l.4-.1h1.8l.7-.1.6-.2h.3l.3-.2.5-.2.8-.5.5-.5.8-1 .5-1 .3-.8.1-.9z"
          ></path>
        </svg>